<mxfile host="app.diagrams.net" modified="2024-06-02T20:03:03.294Z" agent="Mozilla/5.0 (Windows NT 10.0; Win64; x64; rv:126.0) Gecko/20100101 Firefox/126.0" etag="qiKWjprBak9U-ldHNy3c" version="24.4.10" type="device">
  <diagram name="Page-1" id="LZ7K36N-VkaVWjXydS0J">
    <mxGraphModel dx="1937" dy="2442" grid="1" gridSize="10" guides="1" tooltips="1" connect="1" arrows="1" fold="1" page="1" pageScale="1" pageWidth="850" pageHeight="1100" math="0" shadow="0">
      <root>
        <mxCell id="0" />
        <mxCell id="1" parent="0" />
        <mxCell id="IB6KKEzYAM_JYOzarY0I-3" value="" style="edgeStyle=orthogonalEdgeStyle;rounded=0;orthogonalLoop=1;jettySize=auto;html=1;" parent="1" source="IB6KKEzYAM_JYOzarY0I-1" target="IB6KKEzYAM_JYOzarY0I-2" edge="1">
          <mxGeometry relative="1" as="geometry" />
        </mxCell>
        <mxCell id="IB6KKEzYAM_JYOzarY0I-5" value="" style="edgeStyle=orthogonalEdgeStyle;rounded=0;orthogonalLoop=1;jettySize=auto;html=1;" parent="1" source="IB6KKEzYAM_JYOzarY0I-1" target="IB6KKEzYAM_JYOzarY0I-4" edge="1">
          <mxGeometry relative="1" as="geometry" />
        </mxCell>
        <mxCell id="IB6KKEzYAM_JYOzarY0I-53" value="" style="edgeStyle=none;rounded=0;orthogonalLoop=1;jettySize=auto;html=1;" parent="1" source="2NhJJZEaWzsQO4nIQOIo-3" target="IB6KKEzYAM_JYOzarY0I-52" edge="1">
          <mxGeometry relative="1" as="geometry">
            <mxPoint x="420" y="600" as="sourcePoint" />
          </mxGeometry>
        </mxCell>
        <mxCell id="2NhJJZEaWzsQO4nIQOIo-2" value="" style="edgeStyle=orthogonalEdgeStyle;rounded=0;orthogonalLoop=1;jettySize=auto;html=1;" edge="1" parent="1" source="IB6KKEzYAM_JYOzarY0I-1" target="2NhJJZEaWzsQO4nIQOIo-1">
          <mxGeometry relative="1" as="geometry" />
        </mxCell>
        <mxCell id="IB6KKEzYAM_JYOzarY0I-1" value="BODYPANE&lt;br&gt;TABPANE" style="rounded=0;whiteSpace=wrap;html=1;" parent="1" vertex="1">
          <mxGeometry x="360" y="270" width="120" height="60" as="geometry" />
        </mxCell>
        <mxCell id="IB6KKEzYAM_JYOzarY0I-28" value="" style="edgeStyle=none;rounded=0;orthogonalLoop=1;jettySize=auto;html=1;" parent="1" source="IB6KKEzYAM_JYOzarY0I-54" target="IB6KKEzYAM_JYOzarY0I-27" edge="1">
          <mxGeometry relative="1" as="geometry" />
        </mxCell>
        <mxCell id="IB6KKEzYAM_JYOzarY0I-30" style="edgeStyle=none;rounded=0;orthogonalLoop=1;jettySize=auto;html=1;" parent="1" source="IB6KKEzYAM_JYOzarY0I-54" target="IB6KKEzYAM_JYOzarY0I-29" edge="1">
          <mxGeometry relative="1" as="geometry" />
        </mxCell>
        <mxCell id="IB6KKEzYAM_JYOzarY0I-33" value="" style="edgeStyle=none;rounded=0;orthogonalLoop=1;jettySize=auto;html=1;" parent="1" source="IB6KKEzYAM_JYOzarY0I-2" target="IB6KKEzYAM_JYOzarY0I-32" edge="1">
          <mxGeometry relative="1" as="geometry" />
        </mxCell>
        <mxCell id="IB6KKEzYAM_JYOzarY0I-35" style="edgeStyle=none;rounded=0;orthogonalLoop=1;jettySize=auto;html=1;" parent="1" source="IB6KKEzYAM_JYOzarY0I-2" target="IB6KKEzYAM_JYOzarY0I-34" edge="1">
          <mxGeometry relative="1" as="geometry" />
        </mxCell>
        <mxCell id="IB6KKEzYAM_JYOzarY0I-37" style="edgeStyle=none;rounded=0;orthogonalLoop=1;jettySize=auto;html=1;" parent="1" source="IB6KKEzYAM_JYOzarY0I-54" target="IB6KKEzYAM_JYOzarY0I-36" edge="1">
          <mxGeometry relative="1" as="geometry" />
        </mxCell>
        <mxCell id="IB6KKEzYAM_JYOzarY0I-55" value="" style="edgeStyle=none;rounded=0;orthogonalLoop=1;jettySize=auto;html=1;" parent="1" source="IB6KKEzYAM_JYOzarY0I-2" target="IB6KKEzYAM_JYOzarY0I-54" edge="1">
          <mxGeometry relative="1" as="geometry" />
        </mxCell>
        <mxCell id="IB6KKEzYAM_JYOzarY0I-2" value="BORDERPANE" style="rounded=0;whiteSpace=wrap;html=1;fillColor=#ffe6cc;strokeColor=#d79b00;" parent="1" vertex="1">
          <mxGeometry x="360" y="130" width="120" height="60" as="geometry" />
        </mxCell>
        <mxCell id="2NhJJZEaWzsQO4nIQOIo-18" style="edgeStyle=none;rounded=0;orthogonalLoop=1;jettySize=auto;html=1;" edge="1" parent="1" source="IB6KKEzYAM_JYOzarY0I-4" target="2NhJJZEaWzsQO4nIQOIo-11">
          <mxGeometry relative="1" as="geometry" />
        </mxCell>
        <mxCell id="2NhJJZEaWzsQO4nIQOIo-19" style="edgeStyle=none;rounded=0;orthogonalLoop=1;jettySize=auto;html=1;" edge="1" parent="1" source="IB6KKEzYAM_JYOzarY0I-4" target="2NhJJZEaWzsQO4nIQOIo-12">
          <mxGeometry relative="1" as="geometry" />
        </mxCell>
        <mxCell id="2NhJJZEaWzsQO4nIQOIo-20" style="edgeStyle=none;rounded=0;orthogonalLoop=1;jettySize=auto;html=1;" edge="1" parent="1" source="IB6KKEzYAM_JYOzarY0I-4" target="2NhJJZEaWzsQO4nIQOIo-14">
          <mxGeometry relative="1" as="geometry" />
        </mxCell>
        <mxCell id="2NhJJZEaWzsQO4nIQOIo-21" style="edgeStyle=none;rounded=0;orthogonalLoop=1;jettySize=auto;html=1;" edge="1" parent="1" source="IB6KKEzYAM_JYOzarY0I-4" target="2NhJJZEaWzsQO4nIQOIo-16">
          <mxGeometry relative="1" as="geometry" />
        </mxCell>
        <mxCell id="IB6KKEzYAM_JYOzarY0I-4" value="&lt;div&gt;MENU&lt;br&gt;GRIDPANE(2*3)&lt;br&gt;&lt;/div&gt;&lt;div&gt;RIGHT&lt;/div&gt;" style="rounded=0;whiteSpace=wrap;html=1;fillColor=#d5e8d4;strokeColor=#82b366;" parent="1" vertex="1">
          <mxGeometry x="560" y="270" width="120" height="60" as="geometry" />
        </mxCell>
        <mxCell id="IB6KKEzYAM_JYOzarY0I-17" value="" style="edgeStyle=none;rounded=0;orthogonalLoop=1;jettySize=auto;html=1;" parent="1" source="IB6KKEzYAM_JYOzarY0I-6" target="IB6KKEzYAM_JYOzarY0I-16" edge="1">
          <mxGeometry relative="1" as="geometry" />
        </mxCell>
        <mxCell id="IB6KKEzYAM_JYOzarY0I-19" style="edgeStyle=none;rounded=0;orthogonalLoop=1;jettySize=auto;html=1;" parent="1" source="IB6KKEzYAM_JYOzarY0I-6" target="IB6KKEzYAM_JYOzarY0I-18" edge="1">
          <mxGeometry relative="1" as="geometry" />
        </mxCell>
        <mxCell id="IB6KKEzYAM_JYOzarY0I-22" value="" style="edgeStyle=none;rounded=0;orthogonalLoop=1;jettySize=auto;html=1;" parent="1" source="IB6KKEzYAM_JYOzarY0I-6" target="IB6KKEzYAM_JYOzarY0I-21" edge="1">
          <mxGeometry relative="1" as="geometry" />
        </mxCell>
        <mxCell id="2NhJJZEaWzsQO4nIQOIo-23" style="edgeStyle=none;rounded=0;orthogonalLoop=1;jettySize=auto;html=1;" edge="1" parent="1" source="IB6KKEzYAM_JYOzarY0I-6" target="2NhJJZEaWzsQO4nIQOIo-22">
          <mxGeometry relative="1" as="geometry" />
        </mxCell>
        <mxCell id="2NhJJZEaWzsQO4nIQOIo-25" value="" style="edgeStyle=none;rounded=0;orthogonalLoop=1;jettySize=auto;html=1;" edge="1" parent="1" source="IB6KKEzYAM_JYOzarY0I-6" target="2NhJJZEaWzsQO4nIQOIo-24">
          <mxGeometry relative="1" as="geometry" />
        </mxCell>
        <mxCell id="IB6KKEzYAM_JYOzarY0I-6" value="&lt;div&gt;REGLAGEROBINET&lt;br&gt;GRIDPANE&lt;br&gt;&lt;/div&gt;&lt;div&gt;1st&lt;br&gt;&lt;/div&gt;" style="rounded=0;whiteSpace=wrap;html=1;fillColor=#d5e8d4;strokeColor=#82b366;" parent="1" vertex="1">
          <mxGeometry x="740" y="-80" width="120" height="60" as="geometry" />
        </mxCell>
        <mxCell id="IB6KKEzYAM_JYOzarY0I-15" value="" style="edgeStyle=none;rounded=0;orthogonalLoop=1;jettySize=auto;html=1;" parent="1" source="IB6KKEzYAM_JYOzarY0I-8" target="IB6KKEzYAM_JYOzarY0I-14" edge="1">
          <mxGeometry relative="1" as="geometry" />
        </mxCell>
        <mxCell id="IB6KKEzYAM_JYOzarY0I-24" style="edgeStyle=none;rounded=0;orthogonalLoop=1;jettySize=auto;html=1;" parent="1" source="IB6KKEzYAM_JYOzarY0I-8" target="IB6KKEzYAM_JYOzarY0I-23" edge="1">
          <mxGeometry relative="1" as="geometry" />
        </mxCell>
        <mxCell id="IB6KKEzYAM_JYOzarY0I-26" value="" style="edgeStyle=none;rounded=0;orthogonalLoop=1;jettySize=auto;html=1;" parent="1" source="IB6KKEzYAM_JYOzarY0I-8" target="IB6KKEzYAM_JYOzarY0I-25" edge="1">
          <mxGeometry relative="1" as="geometry" />
        </mxCell>
        <mxCell id="2NhJJZEaWzsQO4nIQOIo-46" style="edgeStyle=none;rounded=0;orthogonalLoop=1;jettySize=auto;html=1;" edge="1" parent="1" source="IB6KKEzYAM_JYOzarY0I-8" target="2NhJJZEaWzsQO4nIQOIo-45">
          <mxGeometry relative="1" as="geometry" />
        </mxCell>
        <mxCell id="2NhJJZEaWzsQO4nIQOIo-48" style="edgeStyle=none;rounded=0;orthogonalLoop=1;jettySize=auto;html=1;" edge="1" parent="1" source="IB6KKEzYAM_JYOzarY0I-8" target="2NhJJZEaWzsQO4nIQOIo-47">
          <mxGeometry relative="1" as="geometry" />
        </mxCell>
        <mxCell id="IB6KKEzYAM_JYOzarY0I-8" value="&lt;div&gt;REGALGEFUITE&lt;br&gt;GRIDPANE&lt;br&gt;&lt;/div&gt;2nd" style="rounded=0;whiteSpace=wrap;html=1;fillColor=#d5e8d4;strokeColor=#82b366;" parent="1" vertex="1">
          <mxGeometry x="1020" y="400" width="120" height="60" as="geometry" />
        </mxCell>
        <mxCell id="IB6KKEzYAM_JYOzarY0I-59" style="edgeStyle=none;rounded=0;orthogonalLoop=1;jettySize=auto;html=1;" parent="1" source="IB6KKEzYAM_JYOzarY0I-10" target="IB6KKEzYAM_JYOzarY0I-58" edge="1">
          <mxGeometry relative="1" as="geometry" />
        </mxCell>
        <mxCell id="2NhJJZEaWzsQO4nIQOIo-41" style="edgeStyle=none;rounded=0;orthogonalLoop=1;jettySize=auto;html=1;" edge="1" parent="1" source="IB6KKEzYAM_JYOzarY0I-10" target="2NhJJZEaWzsQO4nIQOIo-39">
          <mxGeometry relative="1" as="geometry" />
        </mxCell>
        <mxCell id="2NhJJZEaWzsQO4nIQOIo-43" value="" style="edgeStyle=none;rounded=0;orthogonalLoop=1;jettySize=auto;html=1;" edge="1" parent="1" source="IB6KKEzYAM_JYOzarY0I-10" target="2NhJJZEaWzsQO4nIQOIo-42">
          <mxGeometry relative="1" as="geometry" />
        </mxCell>
        <mxCell id="IB6KKEzYAM_JYOzarY0I-10" value="&lt;div&gt;REGLAGEAFFICHAGE&lt;br&gt;GRID&lt;br&gt;&lt;/div&gt;&lt;div&gt;3rd&lt;br&gt;&lt;/div&gt;" style="rounded=0;whiteSpace=wrap;html=1;fillColor=#d5e8d4;strokeColor=#82b366;" parent="1" vertex="1">
          <mxGeometry x="1150" y="200" width="120" height="60" as="geometry" />
        </mxCell>
        <mxCell id="IB6KKEzYAM_JYOzarY0I-14" value="&lt;div&gt;BTN_FUITE1&lt;br&gt;BTN&lt;br&gt;&lt;/div&gt;1,1" style="rounded=0;whiteSpace=wrap;html=1;fillColor=#d5e8d4;strokeColor=#82b366;" parent="1" vertex="1">
          <mxGeometry x="870" y="520" width="120" height="60" as="geometry" />
        </mxCell>
        <mxCell id="IB6KKEzYAM_JYOzarY0I-16" value="&lt;div&gt;TF_REGLAGEROBINET1&lt;br&gt;TEXTFIELD&lt;br&gt;&lt;/div&gt;&lt;div&gt;0,1&lt;br&gt;&lt;/div&gt;" style="rounded=0;whiteSpace=wrap;html=1;fillColor=#d5e8d4;strokeColor=#82b366;" parent="1" vertex="1">
          <mxGeometry x="590" y="-220" width="120" height="60" as="geometry" />
        </mxCell>
        <mxCell id="IB6KKEzYAM_JYOzarY0I-18" value="&lt;div&gt;TF_REGLAGEROBINET4&lt;br&gt;TEXTFIELD&lt;br&gt;&lt;/div&gt;&lt;div&gt;0,4&lt;br&gt;&lt;/div&gt;" style="rounded=0;whiteSpace=wrap;html=1;fillColor=#d5e8d4;strokeColor=#82b366;" parent="1" vertex="1">
          <mxGeometry x="890" y="-220" width="120" height="60" as="geometry" />
        </mxCell>
        <mxCell id="IB6KKEzYAM_JYOzarY0I-21" value="..." style="rounded=0;whiteSpace=wrap;html=1;fillColor=#d5e8d4;strokeColor=#82b366;" parent="1" vertex="1">
          <mxGeometry x="740" y="-220" width="120" height="60" as="geometry" />
        </mxCell>
        <mxCell id="IB6KKEzYAM_JYOzarY0I-23" value="&lt;div&gt;BTN_FUITE4&lt;br&gt;BTN&lt;br&gt;&lt;/div&gt;1,4" style="rounded=0;whiteSpace=wrap;html=1;fillColor=#d5e8d4;strokeColor=#82b366;" parent="1" vertex="1">
          <mxGeometry x="1170" y="520" width="120" height="60" as="geometry" />
        </mxCell>
        <mxCell id="IB6KKEzYAM_JYOzarY0I-25" value="..." style="rounded=0;whiteSpace=wrap;html=1;fillColor=#d5e8d4;strokeColor=#82b366;" parent="1" vertex="1">
          <mxGeometry x="1020" y="520" width="120" height="60" as="geometry" />
        </mxCell>
        <mxCell id="IB6KKEzYAM_JYOzarY0I-49" style="edgeStyle=none;rounded=0;orthogonalLoop=1;jettySize=auto;html=1;" parent="1" source="IB6KKEzYAM_JYOzarY0I-27" target="IB6KKEzYAM_JYOzarY0I-40" edge="1">
          <mxGeometry relative="1" as="geometry" />
        </mxCell>
        <mxCell id="IB6KKEzYAM_JYOzarY0I-50" style="edgeStyle=none;rounded=0;orthogonalLoop=1;jettySize=auto;html=1;" parent="1" source="IB6KKEzYAM_JYOzarY0I-27" target="IB6KKEzYAM_JYOzarY0I-42" edge="1">
          <mxGeometry relative="1" as="geometry" />
        </mxCell>
        <mxCell id="IB6KKEzYAM_JYOzarY0I-51" style="edgeStyle=none;rounded=0;orthogonalLoop=1;jettySize=auto;html=1;" parent="1" source="IB6KKEzYAM_JYOzarY0I-27" target="IB6KKEzYAM_JYOzarY0I-41" edge="1">
          <mxGeometry relative="1" as="geometry" />
        </mxCell>
        <mxCell id="IB6KKEzYAM_JYOzarY0I-27" value="ROBINET_PANE&lt;br&gt;GRIDPANE(4*1)&lt;br&gt;TOP" style="rounded=0;whiteSpace=wrap;html=1;fillColor=#ffe6cc;strokeColor=#d79b00;" parent="1" vertex="1">
          <mxGeometry x="26" y="-10" width="120" height="60" as="geometry" />
        </mxCell>
        <mxCell id="IB6KKEzYAM_JYOzarY0I-46" style="edgeStyle=none;rounded=0;orthogonalLoop=1;jettySize=auto;html=1;" parent="1" source="IB6KKEzYAM_JYOzarY0I-29" target="IB6KKEzYAM_JYOzarY0I-45" edge="1">
          <mxGeometry relative="1" as="geometry" />
        </mxCell>
        <mxCell id="IB6KKEzYAM_JYOzarY0I-47" style="edgeStyle=none;rounded=0;orthogonalLoop=1;jettySize=auto;html=1;" parent="1" source="IB6KKEzYAM_JYOzarY0I-29" target="IB6KKEzYAM_JYOzarY0I-43" edge="1">
          <mxGeometry relative="1" as="geometry" />
        </mxCell>
        <mxCell id="IB6KKEzYAM_JYOzarY0I-48" style="edgeStyle=none;rounded=0;orthogonalLoop=1;jettySize=auto;html=1;" parent="1" source="IB6KKEzYAM_JYOzarY0I-29" target="IB6KKEzYAM_JYOzarY0I-44" edge="1">
          <mxGeometry relative="1" as="geometry" />
        </mxCell>
        <mxCell id="IB6KKEzYAM_JYOzarY0I-29" value="FUITE_PANE&lt;br&gt;GRIDPANE(4*1)&lt;br&gt;BOTTOM" style="rounded=0;whiteSpace=wrap;html=1;fillColor=#ffe6cc;strokeColor=#d79b00;" parent="1" vertex="1">
          <mxGeometry x="26" y="90" width="120" height="60" as="geometry" />
        </mxCell>
        <mxCell id="IB6KKEzYAM_JYOzarY0I-32" value="PANE&lt;br&gt;RIGHT" style="rounded=0;whiteSpace=wrap;html=1;fillColor=#ffe6cc;strokeColor=#d79b00;" parent="1" vertex="1">
          <mxGeometry x="320" y="-10" width="120" height="60" as="geometry" />
        </mxCell>
        <mxCell id="IB6KKEzYAM_JYOzarY0I-34" value="PANE&lt;br&gt;LEFT" style="rounded=0;whiteSpace=wrap;html=1;fillColor=#ffe6cc;strokeColor=#d79b00;" parent="1" vertex="1">
          <mxGeometry x="450" y="-10" width="120" height="60" as="geometry" />
        </mxCell>
        <mxCell id="IB6KKEzYAM_JYOzarY0I-39" value="" style="edgeStyle=none;rounded=0;orthogonalLoop=1;jettySize=auto;html=1;" parent="1" source="IB6KKEzYAM_JYOzarY0I-36" target="IB6KKEzYAM_JYOzarY0I-38" edge="1">
          <mxGeometry relative="1" as="geometry" />
        </mxCell>
        <mxCell id="IB6KKEzYAM_JYOzarY0I-36" value="BAIGNOIRE_PANE&lt;br&gt;&lt;div&gt;BORDERPANE&lt;/div&gt;CENTER" style="rounded=0;whiteSpace=wrap;html=1;fillColor=#ffe6cc;strokeColor=#d79b00;" parent="1" vertex="1">
          <mxGeometry x="26" y="190" width="120" height="60" as="geometry" />
        </mxCell>
        <mxCell id="2NhJJZEaWzsQO4nIQOIo-51" value="" style="edgeStyle=none;rounded=0;orthogonalLoop=1;jettySize=auto;html=1;" edge="1" parent="1" source="IB6KKEzYAM_JYOzarY0I-38" target="2NhJJZEaWzsQO4nIQOIo-50">
          <mxGeometry relative="1" as="geometry" />
        </mxCell>
        <mxCell id="IB6KKEzYAM_JYOzarY0I-38" value="&lt;div&gt;-fx-background-color&lt;br&gt;&lt;/div&gt;&lt;div&gt;ANCHORPANE&lt;/div&gt;&lt;div&gt;BOTTOM&lt;/div&gt;" style="rounded=0;whiteSpace=wrap;html=1;fillColor=#ffe6cc;strokeColor=#d79b00;" parent="1" vertex="1">
          <mxGeometry x="26" y="330" width="120" height="60" as="geometry" />
        </mxCell>
        <mxCell id="IB6KKEzYAM_JYOzarY0I-40" value="&lt;div&gt;ROBINET1&lt;br&gt;PANE&lt;br&gt;&lt;/div&gt;&lt;div&gt;1,0&lt;br&gt;&lt;/div&gt;" style="rounded=0;whiteSpace=wrap;html=1;fillColor=#ffe6cc;strokeColor=#d79b00;" parent="1" vertex="1">
          <mxGeometry x="-124" y="-160" width="120" height="60" as="geometry" />
        </mxCell>
        <mxCell id="IB6KKEzYAM_JYOzarY0I-41" value="&lt;div&gt;ROBINET4&lt;br&gt;PANE&lt;/div&gt;&lt;div&gt;4,0&lt;br&gt;&lt;/div&gt;" style="rounded=0;whiteSpace=wrap;html=1;fillColor=#ffe6cc;strokeColor=#d79b00;" parent="1" vertex="1">
          <mxGeometry x="176" y="-160" width="120" height="60" as="geometry" />
        </mxCell>
        <mxCell id="IB6KKEzYAM_JYOzarY0I-42" value="..." style="rounded=0;whiteSpace=wrap;html=1;fillColor=#ffe6cc;strokeColor=#d79b00;" parent="1" vertex="1">
          <mxGeometry x="26" y="-160" width="120" height="60" as="geometry" />
        </mxCell>
        <mxCell id="IB6KKEzYAM_JYOzarY0I-43" value="&lt;div&gt;FUITE1&lt;br&gt;PANE&lt;/div&gt;1,0" style="rounded=0;whiteSpace=wrap;html=1;fillColor=#ffe6cc;strokeColor=#d79b00;" parent="1" vertex="1">
          <mxGeometry x="-214" width="120" height="60" as="geometry" />
        </mxCell>
        <mxCell id="IB6KKEzYAM_JYOzarY0I-44" value="&lt;div&gt;FUITE4&lt;br&gt;PANE&lt;br&gt;&lt;/div&gt;4,0" style="rounded=0;whiteSpace=wrap;html=1;fillColor=#ffe6cc;strokeColor=#d79b00;" parent="1" vertex="1">
          <mxGeometry x="-214" y="180" width="120" height="60" as="geometry" />
        </mxCell>
        <mxCell id="IB6KKEzYAM_JYOzarY0I-45" value="..." style="rounded=0;whiteSpace=wrap;html=1;fillColor=#ffe6cc;strokeColor=#d79b00;" parent="1" vertex="1">
          <mxGeometry x="-214" y="90" width="120" height="60" as="geometry" />
        </mxCell>
        <mxCell id="2NhJJZEaWzsQO4nIQOIo-8" value="" style="edgeStyle=none;rounded=0;orthogonalLoop=1;jettySize=auto;html=1;" edge="1" parent="1" source="IB6KKEzYAM_JYOzarY0I-52" target="2NhJJZEaWzsQO4nIQOIo-7">
          <mxGeometry relative="1" as="geometry" />
        </mxCell>
        <mxCell id="2NhJJZEaWzsQO4nIQOIo-10" style="edgeStyle=none;rounded=0;orthogonalLoop=1;jettySize=auto;html=1;" edge="1" parent="1" source="IB6KKEzYAM_JYOzarY0I-52" target="2NhJJZEaWzsQO4nIQOIo-9">
          <mxGeometry relative="1" as="geometry" />
        </mxCell>
        <mxCell id="IB6KKEzYAM_JYOzarY0I-52" value="&lt;div&gt;LINECHART&lt;/div&gt;&lt;div&gt;CENTER&lt;br&gt;&lt;/div&gt;" style="rounded=0;whiteSpace=wrap;html=1;fillColor=#dae8fc;strokeColor=#6c8ebf;" parent="1" vertex="1">
          <mxGeometry x="425" y="660" width="120" height="60" as="geometry" />
        </mxCell>
        <mxCell id="IB6KKEzYAM_JYOzarY0I-54" value="BORDERPANE&lt;br&gt;CENTER" style="rounded=0;whiteSpace=wrap;html=1;fillColor=#ffe6cc;strokeColor=#d79b00;" parent="1" vertex="1">
          <mxGeometry x="209" y="130" width="120" height="60" as="geometry" />
        </mxCell>
        <mxCell id="IB6KKEzYAM_JYOzarY0I-58" value="&lt;div&gt;BTN_DEMARRERARRETER&lt;br&gt;BTN&lt;/div&gt;&lt;div&gt;0,1&lt;br&gt;&lt;/div&gt;" style="rounded=0;whiteSpace=wrap;html=1;fillColor=#d5e8d4;strokeColor=#82b366;" parent="1" vertex="1">
          <mxGeometry x="1350" y="200" width="120" height="60" as="geometry" />
        </mxCell>
        <mxCell id="2NhJJZEaWzsQO4nIQOIo-4" value="" style="edgeStyle=orthogonalEdgeStyle;rounded=0;orthogonalLoop=1;jettySize=auto;html=1;" edge="1" parent="1" source="2NhJJZEaWzsQO4nIQOIo-1" target="2NhJJZEaWzsQO4nIQOIo-3">
          <mxGeometry relative="1" as="geometry" />
        </mxCell>
        <mxCell id="2NhJJZEaWzsQO4nIQOIo-1" value="GRAPHIQUE&lt;br&gt;TAB" style="rounded=0;whiteSpace=wrap;html=1;fillColor=#dae8fc;strokeColor=#6c8ebf;" vertex="1" parent="1">
          <mxGeometry x="360" y="410" width="120" height="60" as="geometry" />
        </mxCell>
        <mxCell id="2NhJJZEaWzsQO4nIQOIo-6" value="" style="rounded=0;orthogonalLoop=1;jettySize=auto;html=1;" edge="1" parent="1" source="2NhJJZEaWzsQO4nIQOIo-3" target="2NhJJZEaWzsQO4nIQOIo-5">
          <mxGeometry relative="1" as="geometry" />
        </mxCell>
        <mxCell id="2NhJJZEaWzsQO4nIQOIo-3" value="BORDERPANE" style="rounded=0;whiteSpace=wrap;html=1;fillColor=#dae8fc;strokeColor=#6c8ebf;" vertex="1" parent="1">
          <mxGeometry x="360" y="540" width="120" height="60" as="geometry" />
        </mxCell>
        <mxCell id="2NhJJZEaWzsQO4nIQOIo-5" value="&lt;div&gt;EXPORTER EN CSV&lt;br&gt;&lt;/div&gt;&lt;div&gt;BUTTON&lt;/div&gt;&lt;div&gt;BOTTOM&lt;br&gt;&lt;/div&gt;" style="rounded=0;whiteSpace=wrap;html=1;fillColor=#dae8fc;strokeColor=#6c8ebf;" vertex="1" parent="1">
          <mxGeometry x="290" y="660" width="120" height="60" as="geometry" />
        </mxCell>
        <mxCell id="2NhJJZEaWzsQO4nIQOIo-7" value="NUMBERAXIS" style="rounded=0;whiteSpace=wrap;html=1;fillColor=#dae8fc;strokeColor=#6c8ebf;" vertex="1" parent="1">
          <mxGeometry x="350" y="790" width="120" height="60" as="geometry" />
        </mxCell>
        <mxCell id="2NhJJZEaWzsQO4nIQOIo-9" value="NUMBERAXIS" style="rounded=0;whiteSpace=wrap;html=1;fillColor=#dae8fc;strokeColor=#6c8ebf;" vertex="1" parent="1">
          <mxGeometry x="500" y="790" width="120" height="60" as="geometry" />
        </mxCell>
        <mxCell id="2NhJJZEaWzsQO4nIQOIo-26" style="edgeStyle=none;rounded=0;orthogonalLoop=1;jettySize=auto;html=1;" edge="1" parent="1" source="2NhJJZEaWzsQO4nIQOIo-11" target="IB6KKEzYAM_JYOzarY0I-6">
          <mxGeometry relative="1" as="geometry" />
        </mxCell>
        <mxCell id="2NhJJZEaWzsQO4nIQOIo-11" value="&lt;div&gt;GRIDPANE(2*6)&lt;br&gt;&lt;/div&gt;&lt;div&gt;(0,0)&lt;br&gt;&lt;/div&gt;" style="rounded=0;whiteSpace=wrap;html=1;fillColor=#d5e8d4;strokeColor=#82b366;" vertex="1" parent="1">
          <mxGeometry x="740" y="160" width="120" height="60" as="geometry" />
        </mxCell>
        <mxCell id="2NhJJZEaWzsQO4nIQOIo-38" style="edgeStyle=none;rounded=0;orthogonalLoop=1;jettySize=auto;html=1;" edge="1" parent="1" source="2NhJJZEaWzsQO4nIQOIo-12" target="2NhJJZEaWzsQO4nIQOIo-32">
          <mxGeometry relative="1" as="geometry" />
        </mxCell>
        <mxCell id="2NhJJZEaWzsQO4nIQOIo-12" value="&lt;div&gt;GRIDPANE(1*5)&lt;br&gt;&lt;/div&gt;&lt;div&gt;(0,1)&lt;br&gt;&lt;/div&gt;" style="rounded=0;whiteSpace=wrap;html=1;fillColor=#d5e8d4;strokeColor=#82b366;" vertex="1" parent="1">
          <mxGeometry x="740" y="240" width="120" height="60" as="geometry" />
        </mxCell>
        <mxCell id="2NhJJZEaWzsQO4nIQOIo-44" style="edgeStyle=none;rounded=0;orthogonalLoop=1;jettySize=auto;html=1;" edge="1" parent="1" source="2NhJJZEaWzsQO4nIQOIo-14" target="IB6KKEzYAM_JYOzarY0I-10">
          <mxGeometry relative="1" as="geometry" />
        </mxCell>
        <mxCell id="2NhJJZEaWzsQO4nIQOIo-14" value="&lt;div&gt;GRIDPANE(2*2)&lt;br&gt;&lt;/div&gt;&lt;div&gt;(0,2)&lt;br&gt;&lt;/div&gt;" style="rounded=0;whiteSpace=wrap;html=1;fillColor=#d5e8d4;strokeColor=#82b366;" vertex="1" parent="1">
          <mxGeometry x="740" y="320" width="120" height="60" as="geometry" />
        </mxCell>
        <mxCell id="2NhJJZEaWzsQO4nIQOIo-49" style="edgeStyle=none;rounded=0;orthogonalLoop=1;jettySize=auto;html=1;exitX=1;exitY=0.5;exitDx=0;exitDy=0;" edge="1" parent="1" source="2NhJJZEaWzsQO4nIQOIo-16" target="IB6KKEzYAM_JYOzarY0I-8">
          <mxGeometry relative="1" as="geometry" />
        </mxCell>
        <mxCell id="2NhJJZEaWzsQO4nIQOIo-16" value="&lt;div&gt;GRIDPANE(2*5)&lt;br&gt;&lt;/div&gt;&lt;div&gt;(1,1)&lt;br&gt;&lt;/div&gt;" style="rounded=0;whiteSpace=wrap;html=1;fillColor=#d5e8d4;strokeColor=#82b366;" vertex="1" parent="1">
          <mxGeometry x="740" y="400" width="120" height="60" as="geometry" />
        </mxCell>
        <mxCell id="2NhJJZEaWzsQO4nIQOIo-22" value="&lt;div&gt;Modifier robinet&lt;br&gt;TEXT&lt;br&gt;&lt;/div&gt;&lt;div&gt;0,0&lt;br&gt;&lt;/div&gt;" style="rounded=0;whiteSpace=wrap;html=1;fillColor=#d5e8d4;strokeColor=#82b366;" vertex="1" parent="1">
          <mxGeometry x="440" y="-220" width="120" height="60" as="geometry" />
        </mxCell>
        <mxCell id="2NhJJZEaWzsQO4nIQOIo-24" value="&lt;div&gt;Mettre à jour&lt;br&gt;BUTTON&lt;br&gt;&lt;/div&gt;&lt;div&gt;1,0&lt;br&gt;&lt;/div&gt;" style="rounded=0;whiteSpace=wrap;html=1;fillColor=#d5e8d4;strokeColor=#82b366;" vertex="1" parent="1">
          <mxGeometry x="1060" y="-220" width="120" height="60" as="geometry" />
        </mxCell>
        <mxCell id="2NhJJZEaWzsQO4nIQOIo-27" value="" style="edgeStyle=none;rounded=0;orthogonalLoop=1;jettySize=auto;html=1;" edge="1" parent="1" source="2NhJJZEaWzsQO4nIQOIo-32" target="2NhJJZEaWzsQO4nIQOIo-33">
          <mxGeometry relative="1" as="geometry" />
        </mxCell>
        <mxCell id="2NhJJZEaWzsQO4nIQOIo-28" style="edgeStyle=none;rounded=0;orthogonalLoop=1;jettySize=auto;html=1;" edge="1" parent="1" source="2NhJJZEaWzsQO4nIQOIo-32" target="2NhJJZEaWzsQO4nIQOIo-34">
          <mxGeometry relative="1" as="geometry" />
        </mxCell>
        <mxCell id="2NhJJZEaWzsQO4nIQOIo-29" value="" style="edgeStyle=none;rounded=0;orthogonalLoop=1;jettySize=auto;html=1;" edge="1" parent="1" source="2NhJJZEaWzsQO4nIQOIo-32" target="2NhJJZEaWzsQO4nIQOIo-35">
          <mxGeometry relative="1" as="geometry" />
        </mxCell>
        <mxCell id="2NhJJZEaWzsQO4nIQOIo-30" style="edgeStyle=none;rounded=0;orthogonalLoop=1;jettySize=auto;html=1;" edge="1" parent="1" source="2NhJJZEaWzsQO4nIQOIo-32" target="2NhJJZEaWzsQO4nIQOIo-36">
          <mxGeometry relative="1" as="geometry" />
        </mxCell>
        <mxCell id="2NhJJZEaWzsQO4nIQOIo-32" value="&lt;div&gt;REGLAGEROBINET&lt;br&gt;GRIDPANE&lt;br&gt;&lt;/div&gt;&lt;div&gt;1st&lt;br&gt;&lt;/div&gt;" style="rounded=0;whiteSpace=wrap;html=1;fillColor=#d5e8d4;strokeColor=#82b366;" vertex="1" parent="1">
          <mxGeometry x="1150" y="60" width="120" height="60" as="geometry" />
        </mxCell>
        <mxCell id="2NhJJZEaWzsQO4nIQOIo-33" value="&lt;div&gt;TF_REGLAGEFUITE1&lt;br&gt;TEXTFIELD&lt;br&gt;&lt;/div&gt;&lt;div&gt;0,1&lt;br&gt;&lt;/div&gt;" style="rounded=0;whiteSpace=wrap;html=1;fillColor=#d5e8d4;strokeColor=#82b366;" vertex="1" parent="1">
          <mxGeometry x="1070" y="-80" width="120" height="60" as="geometry" />
        </mxCell>
        <mxCell id="2NhJJZEaWzsQO4nIQOIo-34" value="&lt;div&gt;TF_REGLAGEFUITE4&lt;br&gt;TEXTFIELD&lt;br&gt;&lt;/div&gt;&lt;div&gt;0,4&lt;br&gt;&lt;/div&gt;" style="rounded=0;whiteSpace=wrap;html=1;fillColor=#d5e8d4;strokeColor=#82b366;" vertex="1" parent="1">
          <mxGeometry x="1370" y="-80" width="120" height="60" as="geometry" />
        </mxCell>
        <mxCell id="2NhJJZEaWzsQO4nIQOIo-35" value="..." style="rounded=0;whiteSpace=wrap;html=1;fillColor=#d5e8d4;strokeColor=#82b366;" vertex="1" parent="1">
          <mxGeometry x="1220" y="-80" width="120" height="60" as="geometry" />
        </mxCell>
        <mxCell id="2NhJJZEaWzsQO4nIQOIo-36" value="&lt;div&gt;Modifier fuite&lt;br&gt;TEXT&lt;br&gt;&lt;/div&gt;&lt;div&gt;0,0&lt;br&gt;&lt;/div&gt;" style="rounded=0;whiteSpace=wrap;html=1;fillColor=#d5e8d4;strokeColor=#82b366;" vertex="1" parent="1">
          <mxGeometry x="920" y="-80" width="120" height="60" as="geometry" />
        </mxCell>
        <mxCell id="2NhJJZEaWzsQO4nIQOIo-39" value="&lt;div&gt;BTN_MODIFIERCAPACITE&lt;br&gt;BTN&lt;/div&gt;&lt;div&gt;1,0&lt;br&gt;&lt;/div&gt;" style="rounded=0;whiteSpace=wrap;html=1;fillColor=#d5e8d4;strokeColor=#82b366;" vertex="1" parent="1">
          <mxGeometry x="1350" y="110" width="120" height="60" as="geometry" />
        </mxCell>
        <mxCell id="2NhJJZEaWzsQO4nIQOIo-42" value="&lt;div&gt;TF_REGLAGECAPACITE&lt;br&gt;TEXTFIELD&lt;br&gt;&lt;/div&gt;&lt;div&gt;0,0&lt;br&gt;&lt;/div&gt;" style="rounded=0;whiteSpace=wrap;html=1;fillColor=#d5e8d4;strokeColor=#82b366;" vertex="1" parent="1">
          <mxGeometry x="1350" y="290" width="120" height="60" as="geometry" />
        </mxCell>
        <mxCell id="2NhJJZEaWzsQO4nIQOIo-45" value="&lt;div&gt;Boucher fuite&lt;br&gt;TEXT&lt;br&gt;&lt;/div&gt;&lt;div&gt;1,0&lt;br&gt;&lt;/div&gt;" style="rounded=0;whiteSpace=wrap;html=1;fillColor=#d5e8d4;strokeColor=#82b366;" vertex="1" parent="1">
          <mxGeometry x="720" y="520" width="120" height="60" as="geometry" />
        </mxCell>
        <mxCell id="2NhJJZEaWzsQO4nIQOIo-47" value="&lt;div&gt;BTN_METTREAJOURFUITE&lt;br&gt;BTN&lt;/div&gt;&lt;div&gt;0,0&lt;br&gt;&lt;/div&gt;" style="rounded=0;whiteSpace=wrap;html=1;fillColor=#d5e8d4;strokeColor=#82b366;" vertex="1" parent="1">
          <mxGeometry x="1320" y="520" width="120" height="60" as="geometry" />
        </mxCell>
        <mxCell id="2NhJJZEaWzsQO4nIQOIo-50" value="&lt;div&gt;EAUBAIGNOIRE&lt;/div&gt;RECTANGLE" style="rounded=0;whiteSpace=wrap;html=1;fillColor=#ffe6cc;strokeColor=#d79b00;" vertex="1" parent="1">
          <mxGeometry x="26" y="470" width="120" height="60" as="geometry" />
        </mxCell>
      </root>
    </mxGraphModel>
  </diagram>
</mxfile>
